<svg xmlns="http://www.w3.org/2000/svg" viewBox="0 0 836 340">
  <style>
    :root {
      color-scheme: light dark;
    }
    rect, path {
      fill: #f8f8f8;
      fill: #fff;
      stroke: #666;
      stroke-width: .5px;
    }
    text {
      fill: #444;
      font: normal 18px sans-serif;
      text-align: center;
      text-anchor: middle;
    }
    .fn_x { font-size: 16px; }
    .fn_xx { font-size: 16px; }
    .nav.num { font-size: 16px; }

    .arrow { font-family: "Consolas", monospace; }
    .specialKey rect { fill: #e4e4e4; }
    .specialKey text { font-size: 14px; }
    .text            { font-size: 11px; }

    #left  { transform: translate(  4px, 60px); }
    #right { transform: translate(480px, 60px); }

    /* column stagger */

    .col_L { transform: translate(  0px, 22.5px); }
    .col_1 { transform: translate( 60px, 22.5px); }
    .col_2 { transform: translate(120px,  7.5px); }
    .col_3 { transform: translate(180px,  0.0px); }
    .col_4 { transform: translate(240px,  7.5px); }
    .col_5 { transform: translate(300px, 15.0px); }

    .col_6 { transform: translate(  0px, 15.0px); }
    .col_7 { transform: translate( 60px,  7.5px); }
    .col_8 { transform: translate(120px,  0.0px); }
    .col_9 { transform: translate(180px,  7.5px); }
    .col_0 { transform: translate(240px, 22.5px); }
    .col_R { transform: translate(300px, 22.5px); }

    /* XXX these thumb clusters have been positioned with magic numbers */

    .thb_1 { transform: translate( 90px, 205px); }
    .thb_2 { transform: translate(150px, 190px); }
    .thb_3 { transform: translate(210px, 190px); }
    .thb_4 { transform: translate(280px, 191px); }
    .thb_5 { transform: translate(360px, 182px); }
    .thb_4 g { transform: rotate(12deg); }
    .thb_5 g { transform: rotate(24deg); }

    .thb_0 { transform: translate(210px, 205px); }
    .thb_9 { transform: translate(150px, 190px); }
    .thb_8 { transform: translate( 90px, 190px); }
    .thb_7 { transform: translate( 20px, 201px); }
    .thb_6 { transform: translate(-57px, 201px); }
    .thb_7 g { transform: rotate(-12deg); }
    .thb_6 g { transform: rotate(-24deg); }

    #sym rect { fill: #99f; }
    #nav rect { fill: #e83; }
    .deadKey { fill: red; font-size: 16px; }
    .sym { fill: #44f; }
    .nav { fill: #e83; text-align: center; }

    .level1, .level2 { opacity: 0.8; }
    .sym             { opacity: 0.6; }

    @media (prefers-color-scheme: dark) {
      .specialKey rect { fill: #333; }
      rect, path       { fill: #444; }
      text             { fill: #bbb; }
      .accent          { fill: #6b6; }
      .deadKey         { fill: #f44; }
      .sym             { fill: #99f; }
      #sym rect        { fill: #77d; }
      #sym text        { fill: navy;   }
      #nav text        { fill: brown;  }
    }
  </style>

  <g id="left">
    <g class="col_L specialKey">
      <g transform="translate(0 -60)">
        <rect width="52" height="52" rx="5" ry="5"/>
        <text x="26" y="30">Esc</text>
      </g>
      <g transform="translate(0 0)">
        <rect width="52" height="52" rx="5" ry="5"/>
        <text x="26" y="30">Tab</text>
      </g>
      <g transform="translate(0 60)">
        <rect width="52" height="52" rx="5" ry="5"/>
        <text x="26" y="30">Shift</text>
      </g>
      <g transform="translate(0 120)">
        <rect width="52" height="52" rx="5" ry="5"/>
        <text x="26" y="20">Caps</text>
        <text x="26" y="40">Lock</text>
      </g>
    </g>

    <g class="col_1">
      <g transform="translate(0 -60)">
        <rect width="52" height="52" rx="5" ry="5"/>
        <text x="12.8" y="45.0" class="level1 fn_x">F2</text>
        <text x="10.0" y="18.6" class="level2">$</text>
        <text x="42.0" y="45.0" class="accent">¤</text>
      </g>
      <g transform="translate(0 0)">
        <rect width="52" height="52" rx="5" ry="5"/>
        <text x="10.0" y="18.6" class="level2">Q</text>
        <text x="42.0" y="45.0" class="accent">â</text>
        <text x="42.0" y="18.6" class="sym">^</text>
      </g>
      <g transform="translate(0 60)">
        <rect width="52" height="52" rx="5" ry="5"/>
        <text x="10.0" y="18.6" class="level2">A</text>
        <text x="42.0" y="45.0" class="accent">à</text>
        <text x="42.0" y="18.6" class="sym">{</text>
      </g>
      <g transform="translate(0 120)">
        <rect width="52" height="52" rx="5" ry="5"/>
        <text x="10.0" y="18.6" class="level2">Z</text>
        <text x="42.0" y="45.0" class="accent">ñ</text>
        <text x="42.0" y="18.6" class="sym">~</text>
      </g>
    </g>

    <g class="col_2">
      <g transform="translate(0 -60)">
        <rect width="52" height="52" rx="5" ry="5"/>
        <text x="12.8" y="45.0" class="level1 fn_x">F3</text>
        <text x="10.0" y="18.6" class="level2">'</text>
        <text x="42.0" y="45.0" class="accent">’ <title>Punctuation apostrophe (single right quotation mark)</title></text>
      </g>
      <g transform="translate(0 0)">
        <rect width="52" height="52" rx="5" ry="5"/>
        <text x="10.0" y="18.6" class="level2">C</text>
        <text x="42.0" y="45.0" class="accent">ç</text>
        <text x="42.0" y="18.6" class="sym">&lt;</text>
        <text x="27.0" y="31.0" class="nav text">hom</text>
      </g>
      <g transform="translate(0 60)">
        <rect width="52" height="52" rx="5" ry="5"/>
        <text x="10.0" y="18.6" class="level2">S</text>
        <text x="42.0" y="45.0" class="accent">é</text>
        <text x="42.0" y="18.6" class="sym">(</text>
        <text x="27.0" y="31.0" class="nav arrow">←</text>
      </g>
      <g transform="translate(0 120)">
        <rect width="52" height="52" rx="5" ry="5"/>
        <text x="10.0" y="18.6" class="level2">X</text>
        <text x="42.0" y="18.6" class="sym">[</text>
        <text x="42.0" y="45.0" class="accent">⇥ <title>Tab</title></text>
        <text x="27.0" y="31.0" class="nav text">ins</text>
      </g>
    </g>

    <g class="col_3">
      <g transform="translate(0 -60)">
        <rect width="52" height="52" rx="5" ry="5"/>
        <text x="12.8" y="45.0" class="level1 fn_x">F4</text>
        <text x="10.0" y="18.6" class="level2">"</text>
        <text x="42.0" y="45.0" class="accent">« <title>Left guillemet</title></text>
        <text x="42.0" y="18.6" class="accent">❝ <title>heavy double quote</title></text>
      </g>
      <g transform="translate(0 0)">
        <rect width="52" height="52" rx="5" ry="5"/>
        <text x="10.0" y="18.6" class="level2">O</text>
        <text x="42.0" y="45.0" class="accent">œ</text>
        <text x="42.0" y="18.6" class="sym">&gt;</text>
        <text x="27.0" y="31.0" class="nav arrow">↑</text>
      </g>
      <g transform="translate(0 60)">
        <rect width="52" height="52" rx="5" ry="5"/>
        <text x="10.0" y="18.6" class="level2">E</text>
        <text x="42.0" y="45.0" class="accent">è</text>
        <text x="42.0" y="18.6" class="sym">)</text>
        <text x="27.0" y="31.0" class="nav arrow">↓</text>
      </g>
      <g transform="translate(0 120)">
        <rect width="52" height="52" rx="5" ry="5"/>
        <text x="10.0" y="45.0" class="level1">-</text>
        <text x="10.0" y="18.6" class="level2">?</text>
        <text x="42.0" y="18.6" class="sym">]</text>
        <text x="27.0" y="31.0" class="nav text">del</text>
        <text x="42.0" y="45.0" class="accent">— <title>em dash (fr: Tiret cadratin)</title></text>
      </g>
    </g>

    <g class="col_4">
      <g transform="translate(0 -60)">
        <rect width="52" height="52" rx="5" ry="5"/>
        <text x="12.8" y="45.0" class="level1 fn_x">F5</text>
        <text x="10.0" y="18.6" class="level2">€</text>
        <text x="42.0" y="45.0" class="accent">» <title>Right guillemet</title></text>
        <text x="42.0" y="18.6" class="accent">❞ <title>heavy double quote</title></text>
      </g>
      <g transform="translate(0 0)">
        <rect width="52" height="52" rx="5" ry="5"/>
        <text x="10.0" y="18.6" class="level2">P</text>
        <text x="42.0" y="45.0" class="accent">ô</text>
        <text x="42.0" y="18.6" class="sym">$</text>
        <text x="27.0" y="31.0" class="nav text">end</text>
      </g>
      <g transform="translate(0 60)">
        <rect width="52" height="52" rx="5" ry="5"/>
        <text x="10.0" y="18.6" class="level2">N</text>
        <text x="42.0" y="45.0" class="accent">ê</text>
        <text x="42.0" y="18.6" class="sym">}</text>
        <text x="27.0" y="31.0" class="nav arrow">→</text>
      </g>
      <g transform="translate(0 120)">
        <rect width="52" height="52" rx="5" ry="5"/>
        <text x="10.0" y="18.6" class="level2">V</text>
        <text x="42.0" y="45.0" class="accent">– <title>En dash (fr: Tiret demi-cadratin)</title></text>
        <text x="42.0" y="18.6" class="sym">_ <title>underscore</title></text>
        <text x="27.0" y="31.0" class="nav text"> ⌫ <title>backspace</title></text>
      </g>
    </g>

    <g class="col_5">
      <g transform="translate(0 -60)">
        <rect width="52" height="52" rx="5" ry="5"/>
        <text x="12.8" y="45.0" class="level1 fn_x">F6</text>
        <text x="10.0" y="18.6" class="level2">%</text>
        <text x="42.0" y="18.6" class="accent">‰ <title>per mille</title></text>
        <text x="42.0" y="45.0" class="accent">° <title>degree</title></text>
      </g>
      <g transform="translate(0 0)">
        <rect width="52" height="52" rx="5" ry="5"/>
        <text x="10.0" y="18.6" class="level2">W</text>
        <text x="42.0" y="45.0" class="accent">§ <title>Paragraph sign (section sign)</title></text>
        <text x="42.0" y="18.6" class="sym">%</text>
        <text x="27.0" y="31.0" class="nav">⇞ <title>page up</title></text>
      </g>
      <g transform="translate(0 60)">
        <rect width="52" height="52" rx="5" ry="5"/>
        <text x="10.0" y="18.6" class="level2">F</text>
        <text x="42.0" y="45.0" class="accent">≠ <title>not equal</title></text>
        <text x="42.0" y="18.6" class="sym">=</text>
        <text x="27.0" y="31.0" class="nav">⇟ <title>page down</title></text>
      </g>
      <g transform="translate(0 120)">
        <rect width="52" height="52" rx="5" ry="5"/>
        <text x="10.0" y="18.6" class="level2">B</text>
        <text x="42.0" y="18.6" class="sym">#</text>
        <text x="27.0" y="31.0" class="nav">⎙ <title>print screen</title></text>
        <text x="42.0" y="45.0" class="accent">‑ <title>Nonbreaking hyphen (fr: Tiret insécable)</title></text>
      </g>
    </g>

    <g class="thb_1 specialKey">
      <g>
        <rect width="52" height="52" rx="5" ry="5"/>
        <text x="26" y="30">Win</text>
      </g>
    </g>
    <g class="thb_2 specialKey">
      <g>
        <rect width="52" height="52" rx="5" ry="5"/>
        <text x="26" y="30">Alt</text>
      </g>
    </g>
    <g class="thb_3 specialKey" id="nav">
      <g>
        <rect width="52" height="52" rx="5" ry="5"/>
        <text x="26" y="30">Nav</text>
      </g>
    </g>
    <g class="thb_4 specialKey">
      <g>
        <rect width="52" height="52" rx="5" ry="5"/>
        <text x="26" y="30">Ctrl</text>
      </g>
    </g>
    <g class="thb_5 specialKey">
      <g>
        <rect width="52" height="82" rx="5" ry="5"/>
        <text x="26" y="45">Enter</text>
      </g>
    </g>
  </g>

  <g id="right">
    <g class="col_6">
      <g transform="translate(0 -60)">
        <rect width="52" height="52" rx="5" ry="5"/>
        <text x="12.8" y="45.0" class="level1 fn_x">F8</text>
        <text x="10.0" y="18.6" class="level2">|</text>
        <text x="42.0" y="45.0" class="accent">÷</text>
        <text x="42.0" y="18.6" class="accent">∅ <title>empty set</title></text>
      </g>
      <g transform="translate(0 0)">
        <rect width="52" height="52" rx="5" ry="5"/>
        <text x="10.0" y="18.6" class="level2">J</text>
        <text x="42.0" y="45.0" class="accent" style="font-size: 13px;">↩ <title>Curly enter (leftwards arrow with hook)</title></text>
        <text x="42.0" y="18.6" class="sym">/</text>
        <text x="27.0" y="31.0" class="nav">/</text>
      </g>
      <g transform="translate(0 60)">
        <rect width="52" height="52" rx="5" ry="5"/>
        <text x="10.0" y="18.6" class="level2">L</text>
        <text x="42.0" y="45.0" class="accent">↔</text>
        <text x="42.0" y="18.6" class="sym">\</text>
        <text x="27.0" y="31.0" class="nav">.</text>
      </g>
      <g transform="translate(0 120)">
        <rect width="52" height="52" rx="5" ry="5"/>
        <text x="10.0" y="45.0" class="level1">.</text>
        <text x="10.0" y="18.6" class="level2">:</text>
        <text x="42.0" y="18.6" class="sym">!</text>
        <text x="42.0" y="45.0" class="accent">· <title>Middle dot (fr: Point médian)</title></text>
        <text x="27.0" y="31.0" class="nav">-</text>
      </g>
    </g>

    <g class="col_7">
      <g transform="translate(0 -60)">
        <rect width="52" height="52" rx="5" ry="5"/>
        <text x="12.8" y="45.0" class="level1 fn_x">F9</text>
        <text x="10.0" y="18.6" class="level2">&amp;</text>
        <text x="42.0" y="45.0" class="accent">≤</text>
        <text x="42.0" y="18.6" class="accent">‹ <title>angle quote</title></text>
      </g>
      <g transform="translate(0 0)">
        <rect width="52" height="52" rx="5" ry="5"/>
        <text x="10.0" y="18.6" class="level2">M</text>
        <text x="42.0" y="45.0" class="accent">µ <title>Mu</title></text>
        <text x="42.0" y="18.6" class="sym">&amp;</text>
        <text x="27.0" y="31.0" class="nav num">7</text>
      </g>
      <g transform="translate(0 60)">
        <rect width="52" height="52" rx="5" ry="5"/>
        <text x="10.0" y="18.6" class="level2">R</text>
        <text x="42.0" y="45.0" class="accent">→</text>
        <text x="42.0" y="18.6" class="sym">+</text>
        <text x="27.0" y="31.0" class="nav num">4</text>
      </g>
      <g transform="translate(0 120)">
        <rect width="52" height="52" rx="5" ry="5"/>
        <text x="10.0" y="18.6" class="level2">H</text>
        <text x="42.0" y="45.0" class="accent">… <title>Ellipsis (fr: Point de suspension)</title></text>
        <text x="42.0" y="18.6" class="sym">|</text>
        <text x="27.0" y="31.0" class="nav">1</text>
      </g>
    </g>

    <g class="col_8">
      <g transform="translate(0 -60)">
        <rect width="52" height="52" rx="5" ry="5"/>
        <text x="17.8" y="45.0" class="level1 fn_xx">F10</text>
        <text x="10.0" y="18.6" class="level2">*</text>
        <text x="42.0" y="45.0" class="accent">≥</text>
        <text x="42.0" y="18.6" class="accent">› <title>angle quote</title></text>
      </g>
      <g transform="translate(0 0)">
        <rect width="52" height="52" rx="5" ry="5"/>
        <text x="10.0" y="18.6" class="level2">D</text>
        <text x="42.0" y="18.6" class="sym">*</text>
        <text x="42.0" y="45.0" class="accent">• <title>Bullet (black small circle)</title></text>
        <text x="27.0" y="31.0" class="nav">8</text>
      </g>
      <g transform="translate(0 60)">
        <rect width="52" height="52" rx="5" ry="5"/>
        <text x="10.0" y="18.6" class="level2">T</text>
        <text x="42.0" y="45.0" class="accent">î</text>
        <text x="42.0" y="18.6" class="sym">-</text>
        <text x="27.0" y="31.0" class="nav num">5</text>
      </g>
      <g transform="translate(0 120)">
        <rect width="52" height="52" rx="5" ry="5"/>
        <text x="10.0" y="18.6" class="level2">G</text>
        <text x="10.0" y="45.0" class="deadKey">α <title>dead key for Greek letters</title></text>
        <text x="42.0" y="18.6" class="sym">:</text>
        <text x="27.0" y="31.0" class="nav num">2</text>
      </g>
    </g>

    <g class="col_9">
      <g transform="translate(0 -60)">
        <rect width="52" height="52" rx="5" ry="5"/>
        <text x="17.8" y="45.0" class="level1 fn_xx">F11</text>
        <text x="10.0" y="18.6" class="level2">#</text>
        <text x="42.0" y="18.6" class="accent">♯ <title>sharp (music sign)</title></text>
        <text x="42.0" y="45.0" class="accent">±</text>
      </g>
      <g transform="translate(0 0)">
        <rect width="52" height="52" rx="5" ry="5"/>
        <text x="10.0" y="45.0" class="level1 deadKey">★</text>
        <text x="10.0" y="18.6" class="level2">!</text>
        <text x="42.0" y="18.6" class="sym">`</text>
        <text x="27.0" y="31.0" class="nav num">9</text>
      </g>
      <g transform="translate(0 60)">
        <rect width="52" height="52" rx="5" ry="5"/>
        <text x="10.0" y="18.6" class="level2">I</text>
        <text x="42.0" y="45.0" class="accent">ï</text>
        <text x="42.0" y="18.6" class="sym">'</text>
        <text x="27.0" y="31.0" class="nav num">6</text>
      </g>
      <g transform="translate(0 120)">
        <rect width="52" height="52" rx="5" ry="5"/>
        <text x="10.0" y="45.0" class="level1">,</text>
        <text x="10.0" y="18.6" class="level2">;</text>
        <text x="42.0" y="18.6" class="sym">;</text>
        <text x="27.0" y="31.0" class="nav num">3</text>
      </g>
    </g>

    <g class="col_0">
      <g transform="translate(0 -60)">
        <rect width="52" height="52" rx="5" ry="5"/>
        <text x="17.8" y="45.0" class="level1 fn_xx">F12</text>
        <text x="10.0" y="18.6" class="level2">@</text>
        <text x="42.0" y="18.6" class="accent">≈ <title>almost equal</title></text>
        <text x="42.0" y="45.0" class="accent">×</text>
      </g>
      <g transform="translate(0 0)">
        <rect width="52" height="52" rx="5" ry="5"/>
        <text x="10.0" y="18.6" class="level2">Y</text>
        <text x="42.0" y="45.0" class="accent">û</text>
        <text x="42.0" y="18.6" class="sym">´</text>
        <text x="27.0" y="31.0" class="nav">*</text>
      </g>
      <g transform="translate(0 60)">
        <rect width="52" height="52" rx="5" ry="5"/>
        <text x="10.0" y="18.6" class="level2">U</text>
        <text x="42.0" y="45.0" class="accent">ù</text>
        <text x="42.0" y="18.6" class="sym">"</text>
        <text x="27.0" y="31.0" class="nav num">0</text>
      </g>
      <g transform="translate(0 120)">
        <rect width="52" height="52" rx="5" ry="5"/>
        <text x="10.0" y="18.6" class="level2">K</text>
        <text x="42.0" y="18.6" class="sym">?</text>
        <text x="27.0" y="31.0" class="nav">+</text>
      </g>
    </g>

    <g class="col_R specialKey">
      <g transform="translate(0 -60)">
        <rect width="52" height="52" rx="5" ry="5"/>
        <text x="26" y="30" style="font-size: 13px;">Ins</text>
      </g>
      <g transform="translate(0 0)">
        <rect width="52" height="52" rx="5" ry="5"/>
        <text x="26" y="30" style="font-size: 13px;">Del</text>
      </g>
      <g transform="translate(0 60)">
        <rect width="52" height="52" rx="5" ry="5"/>
        <text x="26" y="30" style="font-size: 16px;">⌫</text>
      </g>
      <g transform="translate(0 120)">
        <rect width="52" height="52" rx="5" ry="5"/>
        <text x="26" y="30" style="font-size: 13px;">Enter</text>
      </g>
    </g>

    <g class="thb_6 specialKey">
      <g>
        <rect width="52" height="82" rx="5" ry="5"/>
        <text x="26" y="22" style="font-size: 11px;">NBSP <title>Nonbreaking space (fr: Espace insécable)</title></text>
        <text x="26" y="45">Space</text>
      </g>
    </g>
    <g class="thb_7 specialKey">
      <g>
        <rect width="52" height="52" rx="5" ry="5"/>
        <text x="26" y="30">Ctrl</text>
      </g>
    </g>
    <g class="thb_8 specialKey" id="sym">
      <g>
        <rect width="52" height="52" rx="5" ry="5"/>
        <text x="26" y="30">AltGr</text>
      </g>
    </g>
    <g class="thb_9 specialKey">
      <g>
        <rect width="52" height="52" rx="5" ry="5"/>
        <text x="26" y="30">Alt</text>
      </g>
    </g>
    <g class="thb_0 specialKey">
      <g>
        <rect width="52" height="52" rx="5" ry="5"/>
        <text x="26" y="30">Prop</text>
      </g>
    </g>
  </g>

</svg>
